# xmcd CD database file
#
# Track frame offsets:
#	151
#	14676
#	30943
#	46968
#	66867
#	84588
#	99161
#	113270
#	133587
#	150768
#	165559
#	185268
#	204571
#	222808
#
# Disc length: 3256 seconds
#
# Revision: 0
# Processed by: cddbd v1.5.2PL0 Copyright (c) Steve Scherf et al.
# Submitted via: CDex 1.51
#
DISCID=a20cb60e
DTITLE=Hot Jazz Trio - Jazz, Blues and Stomps
DYEAR=2002
DGENRE=Jazz
TTITLE0=Beau Koo Jack
TTITLE1=Black Beauty
TTITLE2=Copenhagen
TTITLE3=A Pretty Girl is Like a Melody
TTITLE4=When Your Lover Has Gone
TTITLE5=King Porter Stomp
TTITLE6=Black Bottom Stomp
TTITLE7=Warm Valley
TTITLE8=You Took Advantage of Me
TTITLE9=(Lena From) Palesteena
TTITLE10=Somebody Stole My Gal
TTITLE11=Basin Street Blues
TTITLE12=Sidewalk Blues
TTITLE13=Riverboat Shuffle
EXTD=YEAR: 2002
EXTT0=
EXTT1=
EXTT2=
EXTT3=
EXTT4=
EXTT5=
EXTT6=
EXTT7=
EXTT8=
EXTT9=
EXTT10=
EXTT11=
EXTT12=
EXTT13=
PLAYORDER=
